<svg viewBox="0 0 48 48" xmlns="http://www.w3.org/2000/svg">
  <!-- Cake body -->
  <rect x="8" y="20" width="32" height="20" rx="2" fill="#F59E8B"/>

  <!-- Cake top frosting -->
  <path d="M 8 20 Q 8 12 12 10 L 36 10 Q 40 12 40 20" fill="#FFD4E5"/>

  <!-- Candle 1 -->
  <rect x="16" y="6" width="2" height="6" fill="#D4A5D4" rx="1"/>
  <!-- Flame 1 -->
  <path d="M 17 4 Q 15 1 17 0 Q 19 1 17 4" fill="#F4C274"/>

  <!-- Candle 2 -->
  <rect x="24" y="5" width="2" height="7" fill="#D4A5D4" rx="1"/>
  <!-- Flame 2 -->
  <path d="M 25 3 Q 23 0 25 -1 Q 27 0 25 3" fill="#F4C274"/>

  <!-- Candle 3 -->
  <rect x="32" y="6" width="2" height="6" fill="#D4A5D4" rx="1"/>
  <!-- Flame 3 -->
  <path d="M 33 4 Q 31 1 33 0 Q 35 1 33 4" fill="#F4C274"/>

  <!-- Decoration dots -->
  <circle cx="14" cy="28" r="1.5" fill="#FFFFFF" opacity="0.8"/>
  <circle cx="24" cy="27" r="1.5" fill="#FFFFFF" opacity="0.8"/>
  <circle cx="34" cy="28" r="1.5" fill="#FFFFFF" opacity="0.8"/>

  <!-- Base/plate -->
  <ellipse cx="24" cy="40" rx="18" ry="3" fill="#D4A5D4" opacity="0.3"/>
</svg>
